 <svg  version="1.0" xmlns="http://www.w3.org/2000/svg"  width="300.000000pt" height="400.000000pt" viewBox="0 0 300.000000 400.000000"  preserveAspectRatio="xMidYMid meet">  <g transform="translate(0.000000,400.000000) scale(0.100000,-0.100000)" fill="#9a6a3d"  stroke="none"> <path d="M555 3984 c-57 -9 -135 -35 -211 -69 -123 -56 -194 -135 -267 -292 -20 -43 -11 -153 18 -223 23 -55 93 -164 116 -180 16 -12 96 -159 108 -200 7 -25 19 -63 27 -85 47 -141 94 -562 94 -855 0 -392 -48 -726 -174 -1205 -54 -202 -64 -239 -117 -415 -75 -253 -79 -266 -79 -283 0 -10 4 -17 9 -17 5 0 12 -11 15 -24 19 -77 237 -134 468 -124 183 9 242 33 240 99 -1 40 -11 50 -79 84 -69 33 -304 115 -333 115 -37 0 -21 -29 23 -40 88 -23 230 -71 283 -96 64 -30 87 -65 61 -91 -78 -79 -605 -28 -633 61 -4 11 -11 23 -15 27 -5 3 0 34 10 70 143 487 208 719 227 814 2 11 12 61 23 110 24 111 46 235 62 340 6 44 13 89 15 99 16 85 28 327 27 561 -1 238 -22 438 -67 661 -41 200 -78 287 -187 439 -125 173 -146 254 -99 378 38 101 122 184 247 246 127 63 319 88 392 52 9 -5 28 -14 43 -21 81 -38 143 -156 179 -339 17 -87 127 -308 182 -365 23 -24 80 -67 127 -96 47 -29 97 -62 112 -74 14 -12 41 -32 60 -46 71 -54 326 -321 406 -427 20 -26 39 -50 42 -53 4 -3 39 -52 78 -110 182 -271 271 -530 397 -1154 24 -121 72 -425 78 -498 3 -38 2 -38 117 -14 146 29 282 25 311 -10 14 -18 3 -49 -24 -66 -84 -54 -451 -139 -534 -123 -40 7 -47 22 -57 115 -3 36 -8 79 -11 95 -2 17 -9 73 -15 125 -6 52 -15 118 -20 145 -5 28 -11 64 -14 80 -40 274 -129 605 -213 799 -93 214 -196 406 -270 503 -20 27 -56 73 -79 103 -89 116 -327 344 -529 506 -235 189 -227 185 -330 133 -160 -81 -214 -250 -170 -534 31 -198 47 -455 42 -680 -3 -121 -7 -229 -10 -240 -2 -11 -8 -51 -12 -90 -18 -181 -81 -544 -140 -805 -36 -161 -111 -392 -141 -434 -18 -27 -18 -46 2 -46 39 0 141 308 209 630 56 267 65 320 91 525 3 28 7 52 9 55 2 3 6 59 10 125 4 66 9 123 12 128 7 11 6 463 -1 542 -9 92 -24 225 -30 250 -25 124 -24 290 3 377 34 107 128 188 218 188 11 0 62 -31 114 -70 128 -95 147 -110 186 -148 19 -17 80 -72 136 -121 97 -84 298 -296 351 -371 14 -19 29 -40 33 -45 79 -101 209 -346 266 -500 101 -272 159 -474 187 -650 5 -27 13 -70 19 -95 5 -25 13 -67 16 -95 4 -27 8 -57 10 -65 8 -28 25 -194 31 -295 7 -119 24 -155 82 -174 33 -11 57 -9 183 13 79 15 169 34 199 43 30 10 57 18 60 18 36 8 93 32 125 54 83 56 66 124 -36 149 -63 15 -217 9 -296 -11 -29 -8 -53 -13 -53 -11 0 1 -14 83 -30 181 -17 98 -33 203 -36 233 -9 86 -85 426 -138 618 -98 352 -219 580 -465 877 -89 107 -294 310 -371 369 -30 22 -57 44 -60 47 -3 3 -47 32 -98 63 -62 39 -107 75 -134 109 -57 73 -143 256 -162 347 -45 215 -94 297 -213 351 -47 22 -170 33 -238 23z"/> <path  d="M628 3838 c-48 -17 -34 -88 17 -88 25 0 55 29 55 52 0 13 -31 49 -41 47 -2 0 -16 -5 -31 -11z"/> <path d="M710 3746 c-25 -7 -56 -18 -68 -25 -18 -9 -27 -10 -37 -1 -22 18 -69 8 -80 -18 -6 -14 -24 -26 -46 -32 -55 -15 -147 -80 -164 -116 -29 -61 3 -93 91 -94 49 0 68 5 98 25 21 14 41 23 45 21 13 -9 77 13 115 39 20 14 50 27 67 30 64 11 117 45 138 87 31 64 7 99 -68 97 -25 0 -66 -6 -91 -13z m137 -32 c16 -43 -60 -100 -142 -105 -63 -4 -106 17 -75 36 5 3 7 12 4 19 -7 19 7 26 95 47 97 22 110 22 118 3z m-247 -39 c0 -8 -9 -15 -20 -15 -11 0 -20 7 -20 15 0 8 9 15 20 15 11 0 20 -7 20 -15z m-50 -56 c0 -33 -29 -79 -63 -99 -35 -22 -131 -28 -143 -9 -17 27 81 105 161 127 36 11 45 7 45 -19z m75 -33 c25 -13 26 -15 9 -24 -11 -5 -31 -12 -46 -16 -26 -6 -26 -6 -12 24 18 35 14 34 49 16z"/> <path d="M318 3727 c-11 -8 -18 -28 -18 -46 0 -42 39 -62 78 -40 28 15 39 53 24 76 -12 19 -65 25 -84 10z m45 -42 c0 -6 -7 -11 -16 -13 -12 -3 -15 1 -11 13 7 17 25 17 27 0z"/> </g> </svg> 